<svg xmlns="http://www.w3.org/2000/svg" width="202" height="14" viewBox="0 0 202 14" fill="none">
<path d="M0 13.5661H0.101946C0.509731 13.5661 0.751853 12.8508 0.751853 12.442V1.52053C0.751853 1.13732 0.522474 0.460317 0.101946 0.460317H0V0.243164H3.95041C8.28312 0.243164 10.8573 3.526 10.8573 7.06431C10.8573 10.3855 8.44878 13.7705 3.6828 13.7705H0V13.5661ZM3.17307 0.95849H2.12812V13.0552H3.2113C6.155 13.0552 9.46824 11.2541 9.46824 7.38365C9.46824 3.87089 6.79216 0.95849 3.17307 0.95849Z" fill="#1A1728"/>
<path d="M14.7432 0.243164H17.6614V0.447543H17.5594C17.1771 0.447543 16.9095 1.099 16.9095 1.50776V12.4293C16.9095 12.838 17.1516 13.5533 17.5594 13.5533H17.6614V13.7577H14.7432V13.5533H14.8451C15.2784 13.5533 15.5205 12.8508 15.5205 12.4293V1.52053C15.5205 1.13732 15.2784 0.460317 14.8451 0.460317H14.7432V0.243164Z" fill="#1A1728"/>
<path d="M29.4761 13.5657H29.5781C29.9094 13.5657 30.0751 13.4251 30.0751 13.1186C30.0751 13.0164 30.0496 12.8886 30.0113 12.7737L28.1763 7.79195H24.5955L22.8114 12.6843C22.7732 12.7865 22.7477 12.8886 22.7477 12.9908C22.7477 13.3357 22.9771 13.5657 23.1937 13.5657H23.2956V13.77H21.0273V13.5657H21.1293C21.4734 13.5657 21.8429 13.0675 22.0723 12.5054L26.7618 0L31.3366 12.3777C31.515 12.927 31.8464 13.5657 32.3943 13.5657H32.4963V13.77H29.4761V13.5657ZM24.7994 7.0894H27.9469L26.3795 2.81021L24.7994 7.0894Z" fill="#1A1728"/>
<path d="M46.7806 13.5661H46.8825C47.2903 13.5661 47.5324 12.8508 47.5324 12.442V1.66104L42.2567 14.0004L37.2486 2.29973V12.442C37.2486 12.8508 37.4908 13.5661 37.924 13.5661H38.026V13.7705H35.7959V13.5661H35.8978C36.3056 13.5661 36.535 12.8508 36.535 12.442V1.52053C36.535 1.13732 36.3056 0.460317 35.8978 0.460317H35.7959V0.243164H37.8858L42.6263 11.4585L47.3668 0.243164H49.6733V0.447543H49.5714C49.1381 0.447543 48.896 1.12455 48.896 1.50776V12.4293C48.896 12.838 49.1381 13.5533 49.5714 13.5533H49.6733V13.7577H46.7678V13.5661H46.7806Z" fill="#1A1728"/>
<path d="M67.4626 6.96191C67.4626 11.0623 64.2385 13.9747 60.3008 13.9747C56.1083 13.9747 53.5342 10.6791 53.5342 7.15352C53.5342 3.62798 56.1083 0.0385742 60.5939 0.0385742C64.8247 0.0385742 67.4626 3.28309 67.4626 6.96191ZM66.0735 7.21738C66.0735 4.2028 63.8052 0.766674 60.3263 0.766674C56.9494 0.766674 54.9104 4.08783 54.9104 6.8725C54.9104 9.88708 57.3189 13.2721 60.5685 13.2721C64.2385 13.0933 66.0735 9.93818 66.0735 7.21738Z" fill="#1A1728"/>
<path d="M73.5546 13.5661V13.7705H71.2863V13.5661H71.3882C71.796 13.5661 72.0636 12.8508 72.0636 12.442V1.52053C72.0636 1.13732 71.9234 0.460317 71.35 0.460317H71.248V0.243164H73.3125L80.729 11.9694V1.52053C80.729 1.13732 80.4487 0.460317 80.0282 0.460317H79.9262V0.243164H82.22V0.447543H82.1181C81.6848 0.447543 81.4427 1.12455 81.4427 1.50776V13.7577H80.1811L72.7772 1.99316V12.4293C72.7772 12.838 73.0194 13.5533 73.4526 13.5533H73.5546V13.5661Z" fill="#1A1728"/>
<path d="M86.1709 13.5661H86.2728C86.6806 13.5661 86.9227 12.8508 86.9227 12.442V1.52053C86.9227 1.13732 86.6934 0.460317 86.2728 0.460317H86.1709V0.243164H90.1213C94.454 0.243164 97.0282 3.526 97.0282 7.06431C97.0282 10.3855 94.6197 13.7705 89.8537 13.7705H86.1709V13.5661ZM89.344 0.95849H88.299V13.0552H89.3822C92.3259 13.0552 95.6391 11.2541 95.6391 7.38365C95.6391 3.87089 92.9631 0.95849 89.344 0.95849Z" fill="#1A1728"/>
<path d="M104.57 13.9363C103.487 13.9363 102.735 13.6552 102.073 13.4636C101.64 13.3231 101.295 13.2209 100.951 13.2209V10.8834H101.155C101.155 12.9527 103.653 13.2209 104.328 13.2209C106.686 13.2209 107.68 11.7009 107.68 10.3085C107.68 8.50745 106.023 7.93263 104.392 7.28118C102.532 6.56585 100.633 5.8633 100.633 3.57681C100.633 1.17535 102.672 0.0512695 104.762 0.0512695C105.475 0.0512695 106.087 0.153459 106.66 0.29397C107.132 0.396159 107.565 0.472801 107.973 0.472801V2.58046H107.769C107.705 1.16258 106.609 0.753822 104.723 0.753822C102.532 0.753822 102.022 2.43995 102.022 3.37243C102.022 4.8925 103.5 5.50563 105.131 6.09322C107.017 6.80855 109.094 7.58774 109.094 10.1297C109.094 12.8888 106.699 13.9363 104.57 13.9363Z" fill="#1A1728"/>
<path d="M117.05 13.5934V13.7955H114.126V13.5934H114.227C114.664 13.5934 114.899 12.9196 114.899 12.4985V1.51579C114.899 1.12836 114.681 0.454579 114.227 0.454579H114.126V0.252441H121.99V2.15588H121.789C121.789 1.51579 121.386 0.959918 120.478 0.959918H116.277V6.14806H119.671C120.31 6.14806 120.781 5.69325 120.781 5.18792H120.982V7.76514H120.781C120.781 7.27665 120.327 6.85554 119.671 6.85554H116.277V12.4985C116.277 12.9028 116.529 13.5934 116.949 13.5934H117.05Z" fill="#D59F37"/>
<path d="M132.254 13.5936H132.354C132.674 13.5936 132.842 13.442 132.842 13.1388C132.842 13.0377 132.825 12.9198 132.775 12.7851L130.926 7.79906H127.347L125.565 12.7008C125.532 12.8019 125.498 12.903 125.498 13.0041C125.498 13.3578 125.717 13.5768 125.952 13.5768H126.053V13.7789H123.784V13.5768H123.885C124.238 13.5768 124.608 13.0883 124.826 12.5156L129.515 0L134.102 12.3976C134.287 12.9535 134.606 13.5936 135.161 13.5936H135.262V13.7957H132.237V13.5936H132.254ZM127.565 7.10843H130.724L129.145 2.81305L127.565 7.10843Z" fill="#D59F37"/>
<path d="M138.702 6.85601C138.702 10.0902 141.39 13.257 144.802 13.257C145.81 13.257 147.625 12.9369 148.213 11.0672H148.415V13.3412C148.011 13.3412 147.574 13.4591 147.02 13.6107C146.297 13.796 145.44 13.9981 144.482 13.9981C139.71 13.9981 137.29 10.4102 137.29 7.0413C137.29 3.65553 139.693 0.0507812 144.701 0.0507812C145.608 0.0507812 146.314 0.252916 146.885 0.421362C147.289 0.572964 147.625 0.6235 147.944 0.6235V2.89752H147.742C147.423 1.17937 145.86 0.791946 144.617 0.791946C140.601 0.775102 138.702 3.97558 138.702 6.85601Z" fill="#D59F37"/>
<path d="M157.295 13.5934V13.7955H154.388V13.5934H154.489C154.926 13.5934 155.161 12.8691 155.161 12.4648V1.01045H152.792C151.918 1.01045 151.481 1.85268 151.481 2.49278H151.279V0.252441H160.471V2.49278H160.27C160.27 1.85268 159.833 1.01045 158.959 1.01045H156.539V12.4648C156.539 12.8691 156.791 13.5934 157.194 13.5934H157.295Z" fill="#D59F37"/>
<path d="M176.296 6.97367C176.296 11.0838 173.07 13.9979 169.137 13.9979C164.936 13.9979 162.365 10.6963 162.365 7.15896C162.365 3.62159 164.936 0.0336914 169.423 0.0336914C173.658 0.050536 176.296 3.2847 176.296 6.97367ZM174.901 7.22634C174.901 4.21116 172.633 0.758008 169.154 0.758008C165.777 0.758008 163.726 4.0764 163.726 6.8726C163.726 9.88779 166.146 13.2736 169.39 13.2736C173.07 13.122 174.901 9.95517 174.901 7.22634Z" fill="#D59F37"/>
<path d="M183.316 13.5936V13.7958H180.426V13.5936H180.527C180.93 13.5936 181.182 12.8693 181.182 12.465V1.53288C181.182 1.14545 180.93 0.471666 180.527 0.471666H180.426V0.269531H183.988C186.711 0.269531 188.273 1.36443 188.273 3.43632C188.273 5.50821 186.828 6.53573 185.081 6.85578L186.559 9.11296C187.282 10.2079 188.005 11.2185 188.727 12.3471C189.114 12.903 189.651 13.5936 190.256 13.5936V13.7958H189.383C188.29 13.7958 187.635 13.1725 187.164 12.465C185.938 10.6627 184.728 8.77606 183.518 6.97369C183.215 6.95685 182.862 6.90631 182.56 6.85578V12.4819C182.56 12.8862 182.812 13.6105 183.215 13.6105H183.316V13.5936ZM182.56 0.943316V6.1483H182.661C182.879 6.16515 183.35 6.18199 184.072 6.18199C185.198 6.18199 186.862 5.52505 186.862 3.47001C186.862 1.39812 185.232 0.92647 182.862 0.92647H182.56V0.943316Z" fill="#D59F37"/>
<path d="M191.546 0.252441H194.369V0.454579C194.184 0.471424 193.983 0.623024 193.983 0.892538C193.983 0.959916 193.999 1.04414 194.05 1.11152L197.125 6.5018L200.066 1.39788C200.167 1.1789 200.217 1.11152 200.217 0.943072C200.15 0.505112 199.814 0.454579 199.747 0.454579V0.252441H201.931V0.454579C201.528 0.454579 201.074 1.09467 200.772 1.60001L197.579 7.14189V12.448C197.579 12.8354 197.848 13.5765 198.251 13.5765H198.352V13.7787H195.428V13.5765H195.529C195.965 13.5765 196.201 12.8859 196.201 12.448V7.31034L192.907 1.65055C192.638 1.24627 192.1 0.437733 191.664 0.437733H191.563V0.252441H191.546Z" fill="#D59F37"/>
</svg>